<svg class="logo-img" x="0px" y="0px"
	 viewBox="0 0 504.2 504.2" xml:space="preserve">
<style type="text/css">
	.st0{fill:#5F7432;}
	.st1{fill:#FFFFFF;}
	.st2{fill:#E2EDD9;}
	.st3{font-family:'GothamPro';}
	.st4{font-size:230px;}
</style>
<circle class="st0" cx="252.1" cy="252.1" r="252.1"/>
<path class="st1" d="M7.9,367.1h488.4l0,0c0,38.6-31.5,70.1-70.1,70.1H78C39.4,437.2,7.9,406.4,7.9,367.1L7.9,367.1z"/>
<path d="M426.1,445H78c-43.3,0-78-34.7-78-78c0-4.7,3.2-7.9,7.9-7.9h488.4c4.7,0,7.9,3.2,7.9,7.9C504.1,410.4,469.5,445,426.1,445z
	 M16.5,374.9c3.9,30.7,29.9,54.4,61.4,54.4h348.2c31.5,0,57.5-23.6,61.4-54.4H16.5z"/>
<path class="st2" d="M55.1,70.1H449c13.4,0,23.6,10.2,23.6,23.6v273.3H31.5V93.7C31.5,81.1,42.5,70.1,55.1,70.1z"/>
<path d="M472.6,374.9H31.5c-4.7,0-7.9-3.2-7.9-7.9V93.7c0-17.3,14.2-31.5,31.5-31.5H449c17.3,0,31.5,14.2,31.5,31.5v273.3
	C480.5,371.8,476.6,374.9,472.6,374.9z M39.4,359.2h425.4V93.7c0-8.7-7.1-15.8-15.8-15.8H55.1c-8.7,0-15.8,7.1-15.8,15.8L39.4,359.2
	L39.4,359.2z"/>
<rect x="63.2" y="102.2" class="st1" width="378.1" height="233.9"/>
<g>
	<rect x="200.1" y="394.6" width="15.8" height="15.8"/>
	<rect x="244.2" y="394.6" width="15.8" height="15.8"/>
	<rect x="288.3" y="394.6" width="15.8" height="15.8"/>
</g>
<text transform="matrix(1 0 0 1 95.7618 310.2596)" class="st3 st4">A</text>
<text transform="matrix(1 0 0 1 236.8912 310.8215)" class="st3 st4">C</text>
</svg>
