<svg width="60" height="74" viewBox="0 0 60 74" fill="none" xmlns="http://www.w3.org/2000/svg">
<path fill-rule="evenodd" clip-rule="evenodd" d="M30 74C31.6569 74 33 72.6569 33 71C33 69.3431 31.6569 68 30 68C28.3431 68 27 69.3431 27 71C27 72.6569 28.3431 74 30 74Z" fill="#167C80"/>
<path fill-rule="evenodd" clip-rule="evenodd" d="M34.9102 59.6001C49.1429 57.2569 60 44.8963 60 30C60 13.4315 46.5685 0 30 0C13.4315 0 0 13.4315 0 30C0 44.9393 10.9198 57.3282 25.2131 59.6202C28.1053 60.6328 30 66 30 66C30 66 30.7469 61.5419 34.9102 59.6001Z" fill="#167C80"/>
<path opacity="0.2" fill-rule="evenodd" clip-rule="evenodd" d="M29.2335 38.4964C24.9036 38.4964 21.3935 34.9863 21.3935 30.6564C21.3935 26.3265 24.9036 22.8164 29.2335 22.8164C33.5635 22.8164 37.0735 26.3265 37.0735 30.6564C37.0735 34.9863 33.5635 38.4964 29.2335 38.4964Z" fill="black"/>
</svg>
